<?xml version="1.0" encoding="utf-8"?>
<!-- Generator: Adobe Illustrator 21.0.0, SVG Export Plug-In . SVG Version: 6.00 Build 0)  -->
<svg version="1.1" id="Laag_1" xmlns="http://www.w3.org/2000/svg" xmlns:xlink="http://www.w3.org/1999/xlink" x="0px" y="0px"
	 viewBox="0 0 100 100" style="enable-background:new 0 0 100 100;" xml:space="preserve">
<g id="KFWAFA_1_">
	<g>
		<path d="M0,49.4c0-1.6,0-3.2,0-4.8c0.1-0.3,0.1-0.6,0.2-0.9c0.6-6,2.7-11.5,6.1-16.5c3.7-5.4,8.4-9.7,14-13.1
			c5.4-3.3,11.2-5.5,17.4-6.8c9.7-2,19.4-1.7,29,1c5.4,1.5,10.4,3.8,15,6.9c5.1,3.4,9.5,7.6,12.8,12.9c2.3,3.7,4,7.6,4.9,11.9
			c0.3,1.5,0.5,3,0.8,4.5c0,1.7,0,3.3,0,5c-0.1,0.2-0.1,0.5-0.2,0.7c-0.7,7.3-3.5,13.7-8.1,19.4C85.8,76.9,78,81.8,69,84.9
			C63,87,56.8,88,50.5,88c-5.1,0-10.2-0.6-15.3-1.3c-0.9-0.1-1.7,0-2.5,0.4c-5.6,3.3-11.6,5.5-18,6.3c-2.1,0.2-4.1,0.4-6.2,0.4
			c-2.5,0-3.9-2.6-2.6-4.8c0.3-0.4,0.6-0.8,0.9-1.2c2.9-3.5,5.2-7.4,7.1-11.5c0.2-0.5,0.2-0.8-0.2-1.2c-3.5-3.1-6.5-6.6-8.8-10.6
			c-1.9-3.3-3.3-6.9-4.1-10.7C0.5,52.3,0.2,50.9,0,49.4z M15.2,86.9c0.2,0,0.3,0,0.5,0c3-0.5,5.9-1.3,8.6-2.6
			c2.4-1.1,4.6-2.4,6.9-3.6c0.8-0.4,1.6-0.7,2.6-0.6c1.1,0.2,2.3,0.4,3.4,0.5c4.3,0.4,8.5,1,12.8,1.1c4.8,0.1,9.6-0.6,14.3-1.9
			C72,77.6,78.9,74,84.5,68.2c4.2-4.3,7.2-9.3,8.5-15.3c1.4-6.3,0.6-12.4-2.1-18.2c-2.3-4.9-5.7-8.8-9.9-12.2
			c-4.9-4-10.5-6.7-16.6-8.4c-6.9-1.9-13.9-2.4-21-1.5c-8.1,1-15.6,3.6-22.3,8.3c-4.4,3.1-8,6.8-10.7,11.4c-3.5,6-4.8,12.5-3.6,19.4
			c0.8,4.5,2.6,8.6,5.3,12.3c2.2,3,4.8,5.6,7.7,7.8c1.3,1,1.7,2.4,1.1,3.9c-1,2.2-2,4.4-3,6.5C17,83.9,16.1,85.4,15.2,86.9z"/>
	</g>
</g>
</svg>
