<?xml version="1.0" encoding="utf-8"?>
<!-- Generator: Adobe Illustrator 21.0.0, SVG Export Plug-In . SVG Version: 6.00 Build 0)  -->
<svg version="1.1" id="Laag_1" xmlns="http://www.w3.org/2000/svg" xmlns:xlink="http://www.w3.org/1999/xlink" x="0px" y="0px"
	 viewBox="0 0 100 100" style="enable-background:new 0 0 100 100;" xml:space="preserve">
<style type="text/css">
	.st0{fill:#19435E;}
</style>
<g id="gaPeFS.tif">
	<g>
		<g>
			<path class="st0" d="M48.6,0c1,0,1.9,0,2.9,0c0.1,0,0.2,0,0.3,0c1.4,0,2.8,0.1,4.1,0.3c1.8,0.2,3.6,0.5,5.4,0.9
				C64.5,2,67.5,3,70.4,4.4c4.6,2.1,8.9,4.8,12.7,8.2c3.5,3.1,6.5,6.6,9,10.5c3.4,5.3,5.7,11,6.9,17.2c0.5,2.6,0.9,5.2,0.9,7.9
				c0,0.1,0,0.3,0,0.4c0,1,0,2,0,2.9c0,0.1,0,0.3,0,0.4c0,0.7,0,1.4-0.1,2c-0.1,1.8-0.4,3.6-0.7,5.3c-0.5,2.8-1.3,5.6-2.3,8.2
				c-1.9,5-4.4,9.5-7.7,13.7c-2.8,3.5-5.9,6.5-9.5,9.1c-5,3.6-10.4,6.3-16.3,7.9c-2.3,0.6-4.6,1.1-6.9,1.4c-1.5,0.2-3,0.3-4.6,0.4
				c-0.1,0-0.3,0-0.4,0.1c-1,0-1.9,0-2.9,0c-0.1,0-0.2,0-0.4,0c-1-0.1-2-0.1-3-0.2c-1.9-0.2-3.8-0.5-5.7-0.9
				c-3.6-0.8-7-1.9-10.3-3.4c-4.4-2-8.5-4.7-12.1-7.9c-2.9-2.5-5.4-5.3-7.6-8.4s-4.1-6.4-5.5-9.9c-1.6-3.7-2.6-7.6-3.2-11.6
				c-0.3-1.7-0.4-3.5-0.5-5.2c0-0.3-0.1-0.6-0.1-0.9c0-1,0-2,0-2.9c0-0.3,0.1-0.5,0.1-0.8c0.1-1.9,0.3-3.7,0.6-5.6
				c0.3-2,0.7-4,1.3-5.9c1.1-3.8,2.6-7.4,4.6-10.9c2.1-3.6,4.5-6.9,7.4-10c3-3.1,6.3-5.8,10-8.1C26.8,5.6,29.8,4.1,33,3
				c2.5-0.9,5.1-1.6,7.8-2.1c1.4-0.3,2.8-0.5,4.2-0.6c1.1-0.1,2.2-0.1,3.3-0.2C48.4,0,48.5,0,48.6,0z M50,92c23.2,0,42-18.8,42-42
				S73.2,8,50,8S8.1,26.8,8,50C8,73.2,26.8,92,50,92z"/>
			<path class="st0" d="M60.4,54.4c0.2,0,0.3,0,0.4,0c2.3,0,4.6,0,6.9,0c0.2,0,0.4,0,0.6,0c1.2,0.2,1.8,1.3,1.6,2.4
				c-0.1,0.5-0.3,0.9-0.6,1.2c-2,2.4-4,4.8-6,7.2c-3.9,4.6-7.7,9.3-11.6,13.9c-0.1,0.1-0.1,0.2-0.2,0.2c-0.7,0.8-2,0.8-2.7,0
				c-0.4-0.5-0.8-0.9-1.2-1.4C42,71.4,36.4,64.7,30.9,58c-0.4-0.5-0.7-1.1-0.7-1.7c0-1.1,0.8-1.9,1.9-1.9c0.3,0,0.6,0,1,0
				c2.1,0,4.2,0,6.2,0c0.1,0,0.2,0,0.3,0c0-0.1,0-0.2,0-0.2c0-0.1,0-0.2,0-0.3c0-10.5,0-21,0-31.5c0-0.2,0-0.5,0-0.7
				c0.2-0.9,1-1.6,1.9-1.6c0.1,0,0.2,0,0.2,0c5.4,0,10.8,0,16.3,0c0.3,0,0.7,0,1,0.2c0.7,0.4,1.2,0.9,1.2,1.8c0,0.2,0,0.3,0,0.5
				c0,10.5,0,21,0,31.6C60.4,54.1,60.4,54.2,60.4,54.4z"/>
		</g>
	</g>
</g>
</svg>
