<?xml version="1.0" encoding="utf-8"?>
<!-- Generator: Adobe Illustrator 21.0.0, SVG Export Plug-In . SVG Version: 6.00 Build 0)  -->
<svg version="1.1" id="Laag_1" xmlns="http://www.w3.org/2000/svg" xmlns:xlink="http://www.w3.org/1999/xlink" x="0px" y="0px"
	 viewBox="0 0 100 100" style="enable-background:new 0 0 100 100;" xml:space="preserve">
<g id="uvFncZ.tif">
	<g>
		<g>
			<path d="M89.9,38.4c0,20.5,0,41,0,61.4c-25.6,0-51.2,0-76.8,0c0-20.5,0-41,0-61.4c3.8,0,7.6,0,11.5,0c0-0.2,0-0.3,0-0.5
				c0-3.6,0-7.2,0-10.9c0-2.4,0.3-4.8,0.9-7.1c1.6-5.7,4.6-10.3,9.2-14c3.9-3.2,8.4-5.1,13.5-5.7c3.9-0.5,7.8-0.1,11.6,1.1
				c6.2,2,11,5.8,14.5,11.3C77,17,78.4,21.8,78.4,27c0,3.6,0,7.3,0,10.9c0,0.1,0,0.3,0,0.5C82.3,38.4,86.1,38.4,89.9,38.4z M19,94.4
				c21.7,0,43.4,0,65.1,0c0-16.9,0-33.7,0-50.5c-21.7,0-43.4,0-65.1,0C19,60.7,19,77.6,19,94.4z M72.2,37.3c0-0.1,0-0.2,0-0.3
				c0-3.8,0-7.6,0-11.3c0-0.9-0.1-1.7-0.2-2.6c-0.6-4.2-2.5-7.9-5.7-10.8c-5.9-5.4-13-7.1-20.9-4.9c-8.8,2.5-14.5,10-14.5,18.5
				c0,3.6,0,7.3,0,10.9c0,0.1,0,0.3,0,0.4C44.6,37.3,58.4,37.3,72.2,37.3z"/>
		</g>
	</g>
</g>
</svg>
