<?xml version="1.0" encoding="utf-8"?>
<!-- Generator: Adobe Illustrator 21.0.0, SVG Export Plug-In . SVG Version: 6.00 Build 0)  -->
<svg version="1.1" id="Laag_1" xmlns="http://www.w3.org/2000/svg" xmlns:xlink="http://www.w3.org/1999/xlink" x="0px" y="0px"
	 viewBox="0 0 100 100" style="enable-background:new 0 0 100 100;" xml:space="preserve">
<style type="text/css">
	.st0{fill:#F70303;}
</style>
<g id="BARtoh_1_">
	<g>
		<g>
			<path class="st0" d="M50.5,16c4.5-4.8,9.9-8,16.4-9.4C88.1,2.3,105,21.2,98.4,41.8c-2.7,8.5-8,15.6-14.2,21.7
				C73.4,74,62.1,84,51.1,94.3c-0.2,0.1-0.4,0.2-0.7,0.5c-3.7-3.3-7.6-6.4-11.1-9.9c-8.7-8.4-17.6-16.6-25.9-25.3
				c-5.7-6-9.9-13-11.6-21.3c-3.9-17.8,10.6-34,28.5-32.2C38.4,6.9,41.9,8.6,50.5,16z"/>
		</g>
	</g>
</g>
</svg>
