<?xml version="1.0" encoding="utf-8"?>
<!-- Generator: Adobe Illustrator 21.0.0, SVG Export Plug-In . SVG Version: 6.00 Build 0)  -->
<svg version="1.1" id="Laag_1" xmlns="http://www.w3.org/2000/svg" xmlns:xlink="http://www.w3.org/1999/xlink" x="0px" y="0px"
	 viewBox="0 0 100 100" style="enable-background:new 0 0 100 100;" xml:space="preserve">
<g id="JZU2QP.tif">
	<g>
		<g>
			<path d="M0.6,89.5c0-29.9,0-59.7,0-89.5c0.1,0,0.2,0,0.2,0c3.9,0,7.8,0.1,11.7,0.4C18.4,1,24.3,1.9,30,3.4
				C35.8,4.8,41.5,6.7,47,9c0.7,0.3,1.4,0.6,2,0.9c0.1,0.1,0.3,0.1,0.4,0c5.1-2.4,10.3-4.2,15.7-5.7C70.4,2.8,75.7,1.7,81.2,1
				C86.6,0.2,92-0.1,97.5,0c0.1,0,0.2,0,0.3,0c0,29.8,0,59.7,0,89.5c-0.1,0-0.3,0-0.5,0c-3,0.1-6,0.1-9,0.3
				c-3.6,0.2-7.1,0.7-10.6,1.3C72.3,92,67,93.4,61.8,95c-4.2,1.4-8.3,2.9-12.3,4.9c-0.2,0.1-0.4,0.1-0.6,0c-5.5-2.7-11.2-4.7-17-6.3
				c-3.5-1-7.1-1.8-10.7-2.4c-3.1-0.5-6.2-0.9-9.4-1.3c-3.6-0.4-7.2-0.4-10.9-0.4C0.9,89.5,0.8,89.5,0.6,89.5z M5.7,84.6
				c14.2,0.5,27.8,3.3,40.9,8.7c0-0.2,0-0.4,0-0.6c0-25.9,0-51.7,0-77.6c0-0.8,0-0.8-0.7-1.1c-4.9-2.1-9.9-3.8-15-5.1
				C26.5,7.9,22,7,17.5,6.3c-3.6-0.5-7.3-0.8-10.9-1c-0.3,0-0.5,0-0.8,0C5.7,31.8,5.7,58.2,5.7,84.6z M92.7,5.4c-0.4,0-0.7,0-1.1,0
				c-2.4,0.2-4.7,0.3-7,0.5c-2.9,0.3-5.8,0.7-8.6,1.3c-3.3,0.6-6.6,1.4-9.8,2.3c-4.8,1.2-9.4,2.9-13.9,4.8c-0.3,0.1-0.4,0.3-0.4,0.6
				c0,26,0,52,0,77.9c0,0.1,0,0.3,0,0.5c6.5-2.8,13.2-4.8,20.1-6.2c6.9-1.5,13.8-2.3,20.8-2.5"/>
		</g>
	</g>
</g>
</svg>
