<?xml version="1.0" encoding="utf-8"?>
<!-- Generator: Adobe Illustrator 21.0.0, SVG Export Plug-In . SVG Version: 6.00 Build 0)  -->
<svg version="1.1" id="Laag_1" xmlns="http://www.w3.org/2000/svg" xmlns:xlink="http://www.w3.org/1999/xlink" x="0px" y="0px"
	 viewBox="0 0 100 100" style="enable-background:new 0 0 100 100;" xml:space="preserve">
<g id="n4l8ED.tif">
	<g>
		<g>
			<path d="M100,90c0,0.7,0,1.3,0,2c-2.7,2.7-5.3,5.3-8,8c-0.7,0-1.3,0-2,0C79.4,89.3,68.9,78.5,58.4,67.9c-1.3,0.8-1.9,1.1-2.5,1.5
				C34.7,81.8,7.5,70.6,1.2,46.8c-0.5-1.8-0.8-3.5-1.2-5.3c0-2.8,0-5.7,0-8.5c0.2-0.5,0.4-0.9,0.4-1.4c2.3-14.9,13.4-26.9,28-30.4
				c2-0.5,4-0.8,6.1-1.2c1.7,0,3.3,0,5,0c0.7,0.2,1.4,0.4,2.2,0.5c19.1,2,34.1,20,32.6,39.2c-0.5,6.6-2.5,12.7-6.4,18.7
				c0.8,0.6,1.7,1.1,2.3,1.8C80.2,70.1,90.1,80,100,90z M66.7,37.4C66.7,21.1,53.6,7.9,37.3,7.7C21.1,7.6,7.7,20.9,7.6,37.1
				C7.4,53.4,20.9,66.9,37.2,66.9C53.4,66.9,66.6,53.7,66.7,37.4z"/>
		</g>
	</g>
</g>
</svg>
